<?xml version="1.0" encoding="UTF-8"?>
<svg xmlns="http://www.w3.org/2000/svg" viewBox="0 0 15.000000000000002 2.8668130259787783" preserveAspectRatio="xMidYMid meet">
  <g transform="matrix(0.09366995975118918,0,0,0.09366995975118918,-0.3622393421406193,-0.9696304427369192)" fill="#111">
    <path d="M25.664063 26.71875 l-7.5 13.359375 l-9.433594 0 l-1.386719 -13.359375 l-1.796875 0 l-1.679687 -15.957031 l10.214844 0 l1.191406 14.082031 c2.636719 -4.628906 5.019531 -9.472656 7.636719 -14.082031 l9.960938 0 l-8.964844 15.957031 l1.757813 0 z M31.503906 27.34375 l-1.992187 0 l3.828125 -16.484375 l20.917969 0 l-1.679687 7.402344 l-11.152344 0 l-0.585937 2.5 l10.253906 0 l-1.503906 6.582031 l1.992188 0 l-0.175781 0.78125 l-10.273437 0 l-1.035156 4.570313 l11.113281 0 l-1.679687 7.382813 l-20.957031 0 z M62.363281 27.265625 l2.226563 0 c-0.351562 4.707031 2.851563 8.242188 11.875 2.441406 l2.929688 0 l-1.835937 7.96875 c-9.902344 5.703125 -24.589844 3.984375 -22.441406 -10.410156 l-2.207031 0 c0.117188 -0.527344 0.234375 -1.152344 0.390625 -1.835937 c1.992188 -8.730469 8.652344 -15.078125 17.929688 -15.078125 c5.117188 0 8.066406 1.464844 9.824219 2.675781 l-1.894531 8.164063 l-3.144531 0 c-7.070312 -7.617187 -13.183594 0.15625 -13.652344 6.074219 z M99.101563 26.71875 l-2.96875 13.359375 l-9.902344 0 l3.046875 -13.359375 l-1.777344 0 l1.972656 -8.554687 l-7.8125 0 l1.71875 -7.402344 l25.351563 0 l-1.660156 7.402344 l-7.792969 0 l-1.914062 8.554688 l1.738281 0 z M134.003907 25.683594 c-0.15625 0.625 -0.332031 1.25 -0.566406 1.894531 l2.128906 0 c-2.480469 7.753906 -8.789062 13.378906 -17.441406 13.378906 c-8.925781 0 -12.402344 -5.625 -11.269531 -13.378906 l-2.070312 0 c0.078125 -0.644531 0.175781 -1.269531 0.3125 -1.894531 c2.070313 -8.925781 8.535156 -15.3125 17.929688 -15.3125 c9.199219 0 12.988281 6.445313 10.976563 15.3125 z M125.429688 27.578125 l-2.109375 0 c0.195313 -0.644531 0.390625 -1.269531 0.527344 -1.933594 c2.480469 -10.722656 -6.171875 -10.410156 -8.59375 0.039063 c-0.136719 0.683594 -0.234375 1.308594 -0.332031 1.894531 l2.109375 0 c-1.015625 8.164063 5.644531 7.988281 8.398438 0 z M138.457031 26.71875 l-1.777344 0 l3.632813 -15.957031 c3.398438 0 9.53125 -0.332031 14.375 0.3125 c4.277344 0.625 8.417969 2.207031 7.695313 7.34375 c-0.410156 3.105469 -2.792969 6.289063 -5.371094 8.300781 l1.757813 0 c-0.46875 0.351563 -0.9375 0.722656 -1.445312 0.976563 l6.679688 12.382813 l-11.71875 0 l-4.882812 -9.550781 l-2.167969 9.550781 l-9.84375 0 z M148.535156 17.988281 l-1.191406 5.039063 c4.707031 0 7.34375 -5.039062 1.191406 -5.039062 z"/>
  </g>
</svg>